Coordinates
version=1
nRows=6
nColumns=34
inDegrees=yes

Units are S.I. units (second, meters, Newtons, ...)
If the header above contains a line with 'inDegrees', this indicates whether rotational values are in degrees (yes) or radians (no).

endheader
time	pelvis_tilt	pelvis_list	pelvis_rotation	pelvis_tx	pelvis_ty	pelvis_tz	hip_flexion_r	hip_adduction_r	hip_rotation_r	knee_angle_r	ankle_angle_r	subtalar_angle_r	mtp_angle_r	hip_flexion_l	hip_adduction_l	hip_rotation_l	knee_angle_l	ankle_angle_l	subtalar_angle_l	mtp_angle_l	lumbar_extension	lumbar_bending	lumbar_rotation	arm_flex_r	arm_add_r	arm_rot_r	elbow_flex_r	pro_sup_r	arm_flex_l	arm_add_l	arm_rot_l	elbow_flex_l	pro_sup_l
      2.96666670	      7.43803578	     -2.62717423	     -2.68371393	      0.37620469	      0.71963605	      0.07340180	     36.89621021	     13.72231293	     -3.16272812	     81.99574021	     41.46626655	     -9.64018860	      0.00000000	     47.99903012	    -13.33127517	      3.20502838	     16.32375598	      6.07304412	     -5.52886041	      0.00000000	    -34.89917889	      5.51915983	      3.27805109	    100.74080223	      0.05764501	     63.82594083	    125.79936542	     97.05652293	    102.63024229	     -4.09414560	     70.46865491	    130.87913288	     90.94260283
      2.98333330	      7.38545737	     -2.71875945	     -2.52913301	      0.37674583	      0.72154450	      0.07253419	     36.73166499	     13.77049355	     -3.31310188	     81.58400569	     41.28084653	     -9.85896324	      0.00000000	     47.97244380	    -13.19297063	      3.37339967	     16.25530960	      6.14056732	     -5.58549658	      0.00000000	    -34.69485571	      5.48190408	      3.32564187	    100.76419219	     -0.14050142	     63.69138688	    125.68566315	     97.06535796	    102.80653680	     -3.58049612	     70.64416269	    131.39604774	     90.93669139
      3.00000000	      7.30483333	     -2.86855207	     -2.52543955	      0.37418007	      0.72144934	      0.07318819	     36.72361322	     13.92106488	     -3.35963926	     81.14279071	     40.97835176	     -9.97711397	      0.00000000	     48.22832543	    -13.23758428	      3.53632878	     16.46699657	      5.85994218	     -5.43559916	      0.00000000	    -34.59540150	      5.49985824	      3.39793554	    101.04372010	     -0.28701137	     63.47198594	    125.72699701	     97.08739132	    103.40609181	     -3.43637769	     70.65730420	    131.43880615	     90.90797872
      3.01666670	      7.23566211	     -2.97553163	     -2.61798968	      0.37453956	      0.72406536	      0.07471439	     36.67254787	     14.21047904	     -3.25693076	     80.70240569	     40.80843301	     -9.84504688	      0.00000000	     48.08715948	    -13.33369943	      3.69080237	     16.27142236	      5.81067226	     -5.38687056	      0.00000000	    -34.45008983	      5.41969148	      3.41989819	    101.14250460	     -0.29437029	     63.44934142	    125.66501299	     97.09567035	    103.44775797	     -3.54949819	     70.69148639	    131.16408272	     90.88545861
      3.03333330	      7.24106865	     -3.05471986	     -2.64821642	      0.37495877	      0.72490484	      0.07535779	     36.40913399	     14.39372349	     -3.20833534	     80.23686402	     40.84645105	     -9.78207327	      0.00000000	     48.17314804	    -13.40030489	      3.65746168	     16.53706909	      5.52431052	     -5.30719812	      0.00000000	    -34.35637768	      5.33216295	      3.38107956	    101.06292074	     -0.27750376	     63.55725897	    125.64518287	     97.11327569	    103.54349640	     -3.79234549	     70.67061595	    130.77095991	     90.85302379
      3.05000000	      7.09419777	     -3.08073293	     -2.66256682	      0.37560053	      0.72878115	      0.07625350	     36.30850191	     14.48332938	     -3.14684832	     79.69939074	     40.77165290	     -9.81594510	      0.00000000	     47.96092259	    -13.37607267	      3.74834285	     16.17566002	      5.52946405	     -5.32458380	      0.00000000	    -34.18174384	      5.18228178	      3.36876262	    100.97391377	     -0.35188482	     63.56679380	    125.64606604	     97.12722346	    103.50956102	     -4.29376456	     70.55356724	    130.33991363	     90.80861080
